<?xml version="1.0" standalone="no"?>
<!DOCTYPE svg PUBLIC "-//W3C//DTD SVG 20010904//EN"
 "http://www.w3.org/TR/2001/REC-SVG-20010904/DTD/svg10.dtd">
<svg version="1.0" xmlns="http://www.w3.org/2000/svg"
 width="500.000000pt" height="500.000000pt" viewBox="0 0 500.000000 500.000000"
 preserveAspectRatio="xMidYMid meet">

<g transform="translate(0.000000,500.000000) scale(0.100000,-0.100000)"
fill="#000000" stroke="none">
<path d="M3427 3326 c-70 -29 -72 -31 -213 -169 l-112 -110 -63 52 c-79 63
-171 112 -269 142 -61 19 -98 23 -200 23 -149 0 -213 -15 -350 -81 -85 -41
-105 -56 -190 -145 -52 -55 -254 -260 -447 -457 -411 -417 -408 -412 -408
-571 0 -87 3 -101 33 -162 38 -77 92 -130 171 -167 48 -22 69 -26 151 -26 141
0 176 19 354 195 78 77 145 140 149 140 4 0 35 -23 69 -51 307 -248 778 -199
1029 106 18 22 187 195 375 385 262 265 348 357 368 398 72 144 50 294 -60
412 -67 72 -139 103 -243 107 -74 3 -94 0 -144 -21z"/>
</g>
</svg>
